# xmcd CD database file
#
# Track frame offsets:
#	150
#	9990
#	24175
#	36218
#	46858
#	60790
#	73413
#	81695
#	95798
#	111213
#
# Disc length: 1612 seconds
#
# Revision: 0
# Processed by: cddbd v1.5.2PL0 Copyright (c) Steve Scherf et al.
# Submitted via: CDex 1.74
#
DISCID=7d064a0a
DTITLE=Lloyd Green - And His Steel Guitar
DYEAR=1993
DGENRE=Country
TTITLE0=Nashville Chimes
TTITLE1=Midnight Silence
TTITLE2=Heaven Every Day
TTITLE3=Sound Waves
TTITLE4=Okie From Muskogee
TTITLE5=Triad
TTITLE6=Wide-Awake
TTITLE7=Tom's Tavern Blues
TTITLE8=For The Good Times
TTITLE9=Five String Steel
EXTD=YEAR: 1993
EXTT0=
EXTT1=
EXTT2=
EXTT3=
EXTT4=
EXTT5=
EXTT6=
EXTT7=
EXTT8=
EXTT9=
PLAYORDER=
